<?xml version="1.0" encoding="utf-8"?>
<!-- Generator: Adobe Illustrator 23.0.3, SVG Export Plug-In . SVG Version: 6.00 Build 0)  -->
<svg version="1.1" id="Layer_1" xmlns="http://www.w3.org/2000/svg" xmlns:xlink="http://www.w3.org/1999/xlink" x="0px" y="0px"
	 viewBox="0 0 200 200" style="enable-background:new 0 0 200 200;" xml:space="preserve">
<style type="text/css">
	.st0{fill:#4567F4;}
</style>
<g id="surface1">
	<path class="st0" d="M170.51,62.04l-0.01-0.13c-0.07-1.59-0.12-3.28-0.15-5.16c-0.14-9.15-7.41-16.72-16.57-17.24
		c-19.09-1.07-33.85-7.29-46.47-19.58l-0.11-0.1c-4.11-3.77-10.32-3.77-14.44,0l-0.11,0.1c-12.62,12.3-27.38,18.52-46.47,19.59
		c-9.15,0.51-16.43,8.08-16.57,17.24c-0.03,1.86-0.08,3.55-0.15,5.16l-0.01,0.3c-0.37,19.46-0.83,43.68,7.27,65.67
		c4.46,12.09,11.2,22.6,20.05,31.24c10.08,9.84,23.29,17.65,39.25,23.21c0.52,0.18,1.06,0.33,1.61,0.44
		c0.78,0.15,1.56,0.23,2.34,0.23c0.78,0,1.56-0.08,2.34-0.23c0.55-0.11,1.09-0.26,1.61-0.44c15.94-5.58,29.13-13.39,39.2-23.23
		c8.85-8.64,15.6-19.15,20.05-31.25C171.34,105.81,170.88,81.54,170.51,62.04z M154.07,124.49c-8.55,23.17-25.99,39.08-53.33,48.65
		c-0.1,0.03-0.2,0.06-0.31,0.08c-0.28,0.06-0.57,0.06-0.86,0c-0.11-0.02-0.21-0.05-0.31-0.08c-27.37-9.54-44.83-25.45-53.37-48.62
		c-7.47-20.27-7.05-42.5-6.67-62.11l0-0.11c0.08-1.69,0.13-3.45,0.15-5.39c0.06-4.06,3.3-7.43,7.37-7.65
		c10.8-0.6,20.29-2.69,29.01-6.38c8.71-3.69,16.44-8.88,23.64-15.88c0.37-0.31,0.84-0.31,1.21,0c7.2,7,14.93,12.2,23.64,15.88
		c8.72,3.69,18.21,5.78,29.01,6.38c4.07,0.23,7.31,3.59,7.37,7.65c0.03,1.95,0.08,3.72,0.16,5.39
		C161.15,81.93,161.56,104.18,154.07,124.49z"/>
	<path class="st0" d="M100,58.63c-22.81,0-41.37,18.56-41.37,41.37c0,22.81,18.56,41.37,41.37,41.37
		c22.81,0,41.37-18.56,41.37-41.37C141.37,77.19,122.81,58.63,100,58.63z M100,131.63c-17.44,0-31.63-14.19-31.63-31.63
		S82.56,68.37,100,68.37c17.44,0,31.63,14.19,31.63,31.63S117.44,131.63,100,131.63z"/>
	<path class="st0" d="M111.89,87.16l-19.22,19.22l-5.22-5.22c-1.9-1.9-4.99-1.9-6.89,0c-1.9,1.9-1.9,4.99,0,6.89l8.66,8.66
		c0.95,0.95,2.2,1.43,3.44,1.43s2.49-0.47,3.44-1.43l22.66-22.66c1.9-1.9,1.9-4.99,0-6.89C116.87,85.26,113.79,85.26,111.89,87.16z"
		/>
</g>
</svg>
