<?xml version="1.0" encoding="utf-8"?>
<!-- Generator: Adobe Illustrator 23.0.3, SVG Export Plug-In . SVG Version: 6.00 Build 0)  -->
<svg version="1.1" id="Layer_1" xmlns="http://www.w3.org/2000/svg" xmlns:xlink="http://www.w3.org/1999/xlink" x="0px" y="0px"
	 viewBox="0 0 200 200" style="enable-background:new 0 0 200 200;" xml:space="preserve">
<style type="text/css">
	.st0{fill:#4567F4;}
</style>
<path class="st0" d="M178.31,130.52c-9.51,0-18.44-3.67-25.16-10.33c-6.71-6.66-10.4-15.53-10.4-24.98c0-2.59-2.1-4.69-4.69-4.69
	c-2.59,0-4.69,2.1-4.69,4.69c0,9.45-3.7,18.32-10.4,24.98c-6.71,6.66-15.64,10.33-25.16,10.33c-2.59,0-4.69,2.1-4.69,4.69
	s2.1,4.69,4.69,4.69c19.61,0,35.56,15.89,35.56,35.42c0,2.59,2.1,4.69,4.69,4.69c2.59,0,4.69-2.1,4.69-4.69
	c0-19.53,15.95-35.42,35.56-35.42c2.59,0,4.69-2.1,4.69-4.69S180.9,130.52,178.31,130.52z M138.07,155.4
	c-4.35-8.71-11.47-15.81-20.19-20.17c4.28-2.12,8.23-4.94,11.71-8.39c3.49-3.47,6.34-7.41,8.49-11.68
	c2.14,4.27,4.99,8.22,8.49,11.68c3.48,3.45,7.43,6.27,11.71,8.39C149.53,139.59,142.42,146.7,138.07,155.4z"/>
<path class="st0" d="M84.14,88.87c-13.8,0-25.04-11.15-25.04-24.85c0-2.59-2.1-4.69-4.69-4.69s-4.69,2.1-4.69,4.69
	c0,13.7-11.23,24.85-25.04,24.85c-2.59,0-4.69,2.1-4.69,4.69c0,2.59,2.1,4.69,4.69,4.69c13.8,0,25.04,11.18,25.04,24.93
	c0,2.59,2.1,4.69,4.69,4.69s4.69-2.1,4.69-4.69c0-13.75,11.23-24.93,25.04-24.93c2.59,0,4.69-2.1,4.69-4.69
	C88.82,90.97,86.72,88.87,84.14,88.87z M54.41,105.91c-2.99-5.09-7.26-9.36-12.37-12.34c5.11-2.98,9.38-7.23,12.37-12.31
	c2.99,5.08,7.26,9.33,12.37,12.31C61.67,96.55,57.4,100.81,54.41,105.91z"/>
<path class="st0" d="M94.76,47.39c10.15,0,18.41,8.2,18.41,18.27c0,2.59,2.1,4.69,4.69,4.69s4.69-2.1,4.69-4.69
	c0-10.11,8.26-18.33,18.41-18.33c2.59,0,4.69-2.1,4.69-4.69c0-2.59-2.1-4.69-4.69-4.69c-10.15,0-18.41-8.2-18.41-18.27
	c0-2.59-2.1-4.69-4.69-4.69s-4.69,2.1-4.69,4.69c0,10.11-8.26,18.33-18.41,18.33c-2.59,0-4.69,2.1-4.69,4.69
	S92.17,47.39,94.76,47.39z M117.87,35.05c2.02,3,4.62,5.58,7.63,7.6c-3.02,2.03-5.63,4.63-7.65,7.65c-2.02-3-4.62-5.58-7.63-7.6
	C113.24,40.68,115.85,38.07,117.87,35.05z"/>
</svg>
