<?xml version="1.0" encoding="utf-8"?>
<!-- Generator: Adobe Illustrator 23.0.3, SVG Export Plug-In . SVG Version: 6.00 Build 0)  -->
<svg version="1.1" id="Layer_1" xmlns="http://www.w3.org/2000/svg" xmlns:xlink="http://www.w3.org/1999/xlink" x="0px" y="0px"
	 viewBox="0 0 200 200" style="enable-background:new 0 0 200 200;" xml:space="preserve">
<style type="text/css">
	.st0{fill:#4567F4;}
</style>
<path class="st0" d="M51.17,168.24c1.76,0,3-0.09,4.22,0.02c1.88,0.17,2.94,1.23,3.03,2.85c0.1,1.74-0.98,3.09-2.86,3.34
	c-1.31,0.18-2.65,0.15-4.19,0.22c-0.08,1.03-0.13,1.96-0.24,2.88c-0.26,2.27-1.24,3.25-3.51,3.39c-1.43,0.09-2.88,0.03-4.32,0.03
	c-6.34,0-12.67,0.02-19.01-0.01c-3.74-0.01-4.63-0.88-4.63-4.54c-0.01-15.93-0.01-31.87,0-47.8c0-3.51,0.91-4.41,4.44-4.42
	c7.39-0.02,14.78-0.01,22.17,0c3.57,0,3.91,0.26,5.2,3.65c0.18,0.03,0.4,0.14,0.54,0.08c6.35-2.49,12.63-1.71,18.87,0.38
	c2.54,0.85,5.1,1.73,7.54,2.84c5.42,2.48,10.94,3.08,16.82,1.91c5.17-1.03,10.43-1.56,15.66-2.25c5.12-0.67,8.52,1.17,10.79,5.73
	c0.16,0.33,0.34,0.65,0.6,1.15c5.14-1.38,10.22-2.74,15.29-4.12c4.26-1.15,8.51-2.32,12.77-3.47c2.25-0.61,4.51-0.94,6.81-0.31
	c3.75,1.02,6.29,3.36,7.08,7.17c0.84,4.01-0.49,7.39-3.82,9.86c-0.69,0.51-1.47,0.92-2.26,1.26c-17.09,7.35-34.18,14.72-51.3,22.01
	c-7.97,3.39-16.35,4.8-25,4.59c-0.29-0.01-0.58,0.01-0.86,0c-2.22-0.13-3.66-1.44-3.6-3.27c0.06-1.74,1.39-2.92,3.53-3.01
	c2.59-0.12,5.18-0.14,7.77-0.27c6.72-0.34,12.97-2.56,19.07-5.16c15.79-6.74,31.54-13.58,47.3-20.38c0.44-0.19,0.89-0.38,1.29-0.63
	c1.47-0.92,2.04-2.14,1.73-3.62c-0.29-1.41-1.41-2.43-3.12-2.5c-1.13-0.05-2.3,0.14-3.4,0.44c-9.62,2.61-19.24,5.25-28.84,7.95
	c-0.95,0.27-1.8,0.97-2.65,1.54c-1.82,1.22-3.48,2.76-5.44,3.67c-7.57,3.53-15.33,6.59-23.39,8.82c-0.74,0.2-1.48,0.46-2.23,0.52
	c-1.67,0.12-2.83-0.72-3.26-2.23c-0.41-1.44,0.22-2.87,1.66-3.58c0.68-0.34,1.44-0.52,2.18-0.74c7.45-2.23,14.72-4.96,21.78-8.23
	c1.13-0.52,2.21-1.15,3.26-1.8c1.21-0.75,1.67-1.86,1.16-3.22c-0.48-1.3-1.53-2.02-2.89-1.99c-1.43,0.03-2.86,0.28-4.28,0.48
	c-5.89,0.84-11.77,1.71-17.66,2.55c-3.1,0.44-6.15,0.03-9.09-0.94c-3-0.99-5.92-2.24-8.91-3.25c-2.99-1.01-6.01-1.97-9.07-2.75
	c-3.57-0.91-7.02-0.19-10.4,1.16c-1.76,0.7-2.41,1.76-2.39,3.7c0.1,8.35,0.04,16.7,0.04,25.05
	C51.17,164.55,51.17,166.17,51.17,168.24z M44.63,130.67c-6.26,0-12.34,0-18.46,0c0,14.68,0,29.14,0,43.58
	c2.98,0.57,16.27,0.49,18.46-0.1C44.63,159.71,44.63,145.26,44.63,130.67z"/>
<path class="st0" d="M149.03,72.4c-6.8,2.57-13.36,1.97-19.87-0.4c-3.42-1.25-6.84-2.52-10.23-3.85c-3.3-1.29-6.67-1.66-10.17-1.13
	c-5.98,0.9-11.97,1.66-17.95,2.58c-6.12,0.94-9.34-0.64-12.19-6.14c-0.08-0.16-0.26-0.26-0.58-0.57c-2.34,0.62-4.83,1.26-7.31,1.93
	c-6.57,1.79-13.13,3.64-19.71,5.35c-1.84,0.48-3.77,0.84-5.66,0.81c-4.37-0.06-7.96-3.06-9-7.17c-1.05-4.19,0.7-8.33,4.48-10.6
	c0.49-0.3,1.01-0.55,1.54-0.78c17.19-7.38,34.37-14.78,51.58-22.12c7.71-3.29,15.79-4.65,24.17-4.44c3.47,0.08,4.87,0.87,4.96,3.01
	c0.09,2.23-1.37,3.21-5.02,3.3c-4.99,0.13-10.01,0.13-14.82,1.67c-3.74,1.2-7.49,2.44-11.1,3.98C76.6,44.44,61.11,51.17,45.61,57.86
	c-0.7,0.3-1.41,0.65-2,1.12c-1.05,0.83-1.58,1.95-1.18,3.31c0.38,1.32,1.31,2.2,2.66,2.31c1.12,0.1,2.32,0.04,3.41-0.25
	c9.82-2.64,19.63-5.32,29.42-8.06c0.95-0.27,1.77-1.02,2.62-1.59c1.74-1.18,3.33-2.66,5.2-3.53c7.75-3.59,15.69-6.73,23.95-9.01
	c0.65-0.18,1.29-0.43,1.95-0.47c1.41-0.09,2.7,0.83,3.11,2.1c0.47,1.45-0.06,2.97-1.45,3.69c-0.93,0.48-1.97,0.76-2.97,1.05
	c-7.37,2.18-14.52,4.96-21.5,8.18c-1.04,0.48-2.05,1.05-3,1.69c-1.02,0.7-1.57,1.68-1.12,2.98c0.45,1.31,1.36,2.2,2.75,2.12
	c2.2-0.12,4.39-0.42,6.57-0.72c4.66-0.65,9.31-1.3,13.95-2.05c5.1-0.82,9.91,0.21,14.64,2.03c3.85,1.48,7.69,3.03,11.63,4.18
	c5.87,1.72,10.36,1,15.01-1.99c0-10.64,0-21.37,0-32.48c-1.23-0.04-2.43-0.04-3.63-0.12c-2.24-0.15-3.71-1.51-3.56-3.31
	c0.12-1.34,1.14-3.16,3.54-3.02c1.13,0.06,2.26,0.01,3.58,0.01c0.08-1.08,0.14-1.92,0.2-2.75c0.19-2.59,1.18-3.59,3.8-3.63
	c3.94-0.05,7.87-0.02,11.81-0.02c3.94,0,7.87-0.03,11.81,0.01c3.15,0.03,4.14,0.99,4.16,4.14c0.04,7.49,0.01,14.98,0.01,22.47
	c0,8.16,0,16.32,0,24.48c0,0.77,0.04,1.54-0.03,2.3c-0.21,2.08-1.25,3.1-3.34,3.2c-1.63,0.08-3.26,0.02-4.9,0.02
	c-6.24,0-12.48,0.01-18.72,0C150.59,76.24,150.22,75.96,149.03,72.4z M174.45,69.77c0-14.73,0-29.15,0-43.68
	c-6.27,0-12.35,0-18.39,0c-0.59,3.75-0.44,41.67,0.19,43.85c5.41,0,10.87,0,16.33-0.01C173.13,69.94,173.7,69.84,174.45,69.77z"/>
<path class="st0" d="M144.3,96.34c-0.11,6.45,0.91,4.37-4.23,9.57c-1.82,1.84-3.71,3.62-5.5,5.48c-1,1.05-2.16,1.53-3.58,1.51
	c-1.06-0.01-2.11-0.03-3.17,0.01c-1.54,0.05-2.79-0.47-3.84-1.6c-1.05-1.12-2.16-2.19-3.25-3.26c-2.2-2.16-4.74-2.34-6.66,0.08
	c-3.1,3.91-6.88,5.55-11.76,4.78c-0.37-0.06-0.77,0.03-1.15-0.01c-3.12-0.37-5.35,0.65-7.71,3.04c-5.81,5.9-13.12,7.79-21.16,5.48
	c-8.23-2.37-13.52-7.93-15.5-16.24c-2.36-9.88,2.43-19.9,11.32-24.47c9.13-4.69,19.83-2.69,26.67,5.14
	c1.21,1.39,2.41,1.86,4.18,1.85c13.24-0.06,26.48-0.03,39.72-0.03c0.86,0,1.73-0.04,2.59,0.03c1.95,0.18,2.93,1.14,3.04,3.13
	C144.37,92.45,144.3,94.09,144.3,96.34z M78.22,115.97c8.62,0,15.79-7.14,15.78-15.73c-0.01-8.56-7.23-15.78-15.78-15.78
	c-8.59,0-15.75,7.17-15.75,15.78C62.46,108.88,69.57,115.98,78.22,115.97z M137.8,94.14c-12.74,0-25.42,0-37.81,0
	c0,4.15,0,8.13,0,12.22c3.65,0.52,7.29,0.76,9.82-2.99c0.47-0.7,1.19-1.24,1.83-1.82c1.7-1.53,9.13-1.87,10.94-0.5
	c0.45,0.34,0.83,0.79,1.24,1.19c1.09,1.08,2.16,2.18,3.28,3.22c1.67,1.55,2.76,1.54,4.44-0.05c1.39-1.31,2.61-2.85,4.12-4
	C138.2,99.49,138.37,97.05,137.8,94.14z"/>
<path class="st0" d="M35.35,162.04c1.71-0.01,3.08,1.31,3.13,3.02c0.05,1.78-1.47,3.31-3.23,3.24c-1.68-0.07-2.98-1.47-2.96-3.19
	C32.32,163.38,33.64,162.05,35.35,162.04z"/>
<path class="st0" d="M165.29,32.27c1.7,0.05,3.05,1.44,3.04,3.12c-0.02,1.63-1.46,3.07-3.11,3.08c-1.8,0.02-3.25-1.49-3.15-3.3
	C162.17,33.47,163.55,32.22,165.29,32.27z"/>
</svg>
