<?xml version="1.0" encoding="utf-8"?>
<!-- Generator: Adobe Illustrator 23.0.3, SVG Export Plug-In . SVG Version: 6.00 Build 0)  -->
<svg version="1.1" id="Layer_1" xmlns="http://www.w3.org/2000/svg" xmlns:xlink="http://www.w3.org/1999/xlink" x="0px" y="0px"
	 viewBox="0 0 200 200" style="enable-background:new 0 0 200 200;" xml:space="preserve">
<style type="text/css">
	.st0{fill:#4567F4;}
</style>
<path class="st0" d="M56.12,113.8c2.83,0,5.18-0.01,7.53,0c1.44,0,2.83,0.17,3.54,1.69c0.65,1.41-0.17,2.48-0.9,3.54
	c-8,11.57-15.99,23.16-24.02,34.71c-1.97,2.83-3.76,2.83-5.73,0c-8.04-11.55-16.02-23.13-24.04-34.69
	c-0.82-1.19-1.57-2.38-0.74-3.85c0.75-1.32,2.08-1.39,3.39-1.4c2.33-0.02,4.67,0,7.41,0c0-1.65,0-2.9,0-4.16c0-17.4,0-34.8,0-52.21
	c0-0.43-0.01-0.86,0-1.29c0.05-3.42,0.79-4.22,4.13-4.24c4.4-0.03,8.81,0,13.21,0c4.08,0,8.16-0.05,12.25-0.01
	c3.27,0.03,3.94,0.7,3.98,4.01c0.04,3.87,0.01,7.73,0.01,11.6c0,0.43-0.01,0.86-0.04,1.29c-0.09,1.51-0.91,2.39-2.38,2.59
	c-1.39,0.18-2.67-0.88-2.79-2.51c-0.16-2.25-0.07-4.51-0.08-6.76c-0.01-1.47,0-2.95,0-4.61c-7.76,0-15.11,0-22.93,0
	c0,1.36,0,2.62,0,3.87c0,17.4,0.01,34.8,0.01,52.2c0,0.75,0.02,1.51-0.03,2.26c-0.17,2.46-0.9,3.21-3.38,3.35
	c-1.49,0.08-2.98,0.02-4.53,0.02c0.51,2.36,15.6,24.7,19.6,29.08c6.59-9.52,13.13-18.97,20.13-29.08c-2.36,0-3.93,0.07-5.49-0.02
	c-2.45-0.13-3.36-0.94-3.37-3.35c-0.05-11.39-0.04-22.77,0.01-34.16c0.01-2.14,1.17-3.29,2.8-3.19c1.52,0.09,2.44,1.13,2.45,3.18
	c0.04,8.59,0.01,17.19,0.01,25.78C56.12,109.36,56.12,111.27,56.12,113.8z"/>
<path class="st0" d="M180.48,94.09c2.55,0,4.58-0.03,6.6,0.01c1.56,0.03,3.31-0.39,4.32,1.38c1.04,1.82-0.29,3.05-1.17,4.34
	c-7.74,11.22-15.5,22.44-23.28,33.64c-2.49,3.58-4.01,3.56-6.47,0.01c-7.33-10.6-14.66-21.19-21.99-31.79
	c-0.55-0.79-1.1-1.59-1.67-2.37c-0.86-1.17-1.53-2.41-0.77-3.86c0.71-1.35,2.05-1.38,3.37-1.38c2.34,0,4.68,0,7.28,0
	c0.08-1.31,0.19-2.34,0.19-3.37c0.01-17.61,0.01-35.22,0.01-52.83c0-0.86-0.04-1.72,0.03-2.58c0.17-2.12,0.91-2.86,2.96-3.05
	c0.53-0.05,1.07-0.02,1.61-0.02c8.16,0,16.32-0.01,24.48,0c4,0.01,4.46,0.46,4.47,4.44c0.01,17.5,0.01,35.01,0.01,52.51
	C180.48,90.64,180.48,92.13,180.48,94.09z M184.11,99.34c-2.6,0-4.32,0.09-6.02-0.02c-1.89-0.13-2.64-0.94-2.84-2.84
	c-0.08-0.74-0.04-1.5-0.04-2.25c0-17.62,0-35.24,0-52.86c0-1.24-0.08-2.48-0.12-3.67c-7.79,0-15.15,0-22.69,0
	c-0.06,1.26-0.15,2.32-0.15,3.37c0,12.57,0.02,25.14,0.02,37.71c0,5.69,0.02,11.39-0.06,17.08c-0.04,2.68-0.84,3.39-3.51,3.5
	c-1.54,0.06-3.09,0.05-5.28,0.07c6.99,10.08,13.55,19.54,20.33,29.32C170.6,118.86,177.11,109.45,184.11,99.34z"/>
<path class="st0" d="M118.39,60.12c2.84,0,5.19-0.06,7.53,0.01c3.57,0.11,4.67,2.1,2.66,5.03c-8.02,11.68-16.08,23.32-24.18,34.94
	c-1.97,2.82-3.76,2.77-5.73-0.07c-8.02-11.54-16.02-23.1-24.02-34.66c-0.8-1.16-1.64-2.33-0.76-3.83c0.84-1.43,2.25-1.45,3.68-1.45
	c2.24,0.01,4.49,0,7.09,0c0.05-1.34,0.13-2.48,0.13-3.61c0.01-13.09,0.02-26.19,0.02-39.28c0-0.75-0.04-1.51,0.04-2.25
	c0.21-1.92,0.9-2.58,2.87-2.77c0.64-0.06,1.29-0.03,1.93-0.03c8.05,0,16.1-0.01,24.15,0.01c4.06,0.01,4.59,0.54,4.6,4.71
	c0.02,12.66,0,25.33-0.01,37.99C118.38,56.44,118.39,58.03,118.39,60.12z M101.33,94.53c3.09-3.27,19.04-26.62,19.87-29.14
	c-1.46,0-2.83,0.02-4.2,0c-3.31-0.07-3.85-0.62-3.95-4.03c-0.03-1.07-0.03-2.15-0.03-3.22c0-12.35,0.02-24.7,0.01-37.05
	c0-1.14-0.09-2.29-0.13-3.44c-7.71,0-15.07,0-22.81,0c0,2.95,0,5.72,0,8.48c0,11.71,0.01,23.41-0.01,35.12
	c-0.01,3.53-0.61,4.08-4.15,4.15c-1.34,0.03-2.68,0.06-4.67,0.1C88.17,75.5,94.68,84.91,101.33,94.53z"/>
<path class="st0" d="M138.1,150.69c-0.2,20.29-16.81,36.57-37.07,36.31c-20.06-0.26-36.21-16.86-36.03-37.04
	c0.18-20.1,16.84-36.4,36.92-36.12C122.15,114.13,138.3,130.58,138.1,150.69z M101.55,119.21c-17.23,0.01-31.22,13.94-31.26,31.12
	c-0.05,17.24,14.24,31.49,31.44,31.36c17.16-0.13,31.08-14.19,31.05-31.37C132.73,133.08,118.8,119.2,101.55,119.21z"/>
<path class="st0" d="M104.22,170.36c0,1.86,0.07,3.47-0.02,5.06c-0.11,1.89-1.2,3.05-2.67,3.04c-1.47-0.01-2.43-1.14-2.58-3.1
	c-0.06-0.85,0-1.72-0.03-2.58c-0.02-0.73-0.09-1.47-0.16-2.53c-1.79-0.06-3.46-0.12-5.13-0.16c-1.07-0.03-2.16,0.04-3.22-0.08
	c-1.71-0.2-2.75-1.25-2.77-2.61c-0.02-1.36,1.04-2.45,2.7-2.66c0.74-0.1,1.5-0.05,2.25-0.05c3.86-0.01,7.73-0.03,11.59-0.03
	c2.08,0,3.76-0.79,4.95-2.51c2.55-3.66,0.16-8.61-4.46-9.04c-2.24-0.21-4.51,0.01-6.76-0.14c-4.89-0.31-8.94-3.8-10.06-8.57
	c-1.1-4.66,1.07-9.76,5.35-12.08c1.57-0.85,3.39-1.24,5.49-1.99c0.05-0.61,0.16-1.52,0.21-2.44c0.05-0.96,0-1.93,0.06-2.9
	c0.1-1.48,0.88-2.4,2.39-2.55c1.46-0.14,2.63,0.8,2.78,2.5c0.16,1.79,0.04,3.61,0.04,5.89c2.26,0,4.15-0.02,6.05,0.01
	c1.07,0.01,2.16-0.01,3.21,0.15c1.2,0.19,1.86,1.07,1.94,2.25c0.1,1.34-0.55,2.32-1.85,2.67c-0.81,0.22-1.7,0.19-2.55,0.19
	c-3.54,0.02-7.08,0.01-10.63,0.02c-0.86,0-1.73-0.02-2.57,0.12c-2.91,0.5-4.95,3.06-4.83,5.95c0.12,2.79,2.16,5.13,5.01,5.44
	c1.91,0.2,3.86,0.07,5.79,0.1c6.35,0.11,10.99,4.03,11.61,9.81c0.66,6.09-2.93,10.84-9.29,12.3
	C105.58,169.97,105.07,170.13,104.22,170.36z"/>
</svg>
