<?xml version="1.0" encoding="utf-8"?>
<!-- Generator: Adobe Illustrator 23.0.3, SVG Export Plug-In . SVG Version: 6.00 Build 0)  -->
<svg version="1.1" id="Capa_1" xmlns="http://www.w3.org/2000/svg" xmlns:xlink="http://www.w3.org/1999/xlink" x="0px" y="0px"
	 viewBox="0 0 512 512" style="enable-background:new 0 0 512 512;" xml:space="preserve">
<style type="text/css">
	.st0{fill:#4567F4;}
</style>
<g>
	<g>
		<path class="st0" d="M492,352c11.05,0,20-8.95,20-20V120c0-44.11-35.89-80-80-80h-26V20c0-11.05-8.95-20-20-20s-20,8.95-20,20v20
			h-91V20c0-11.05-8.95-20-20-20c-11.05,0-20,8.95-20,20v20h-90V20c0-11.05-8.95-20-20-20s-20,8.95-20,20v20H80
			C35.89,40,0,75.89,0,120v312c0,44.11,35.89,80,80,80h352c44.11,0,80-35.89,80-80c0-11.05-8.95-20-20-20s-20,8.95-20,20
			c0,22.06-17.94,40-40,40H80c-22.06,0-40-17.94-40-40V120c0-22.06,17.94-40,40-40h25v20c0,11.05,8.95,20,20,20s20-8.95,20-20V80h90
			v20c0,11.05,8.95,20,20,20c11.05,0,20-8.95,20-20V80h91v20c0,11.05,8.95,20,20,20s20-8.95,20-20V80h26c22.06,0,40,17.94,40,40v212
			C472,343.05,480.95,352,492,352z"/>
	</g>
</g>
<g>
	<g>
		<path class="st0" d="M364.8,196.04c-6.85-3.36-15.02-2.52-21.05,2.15l-40,31c-8.73,6.77-10.32,19.33-3.56,28.06
			c6.77,8.73,19.33,10.32,28.06,3.56l7.75-6.01V378c0,11.05,8.95,20,20,20s20-8.95,20-20V214C376,206.37,371.66,199.4,364.8,196.04z
			"/>
	</g>
</g>
<g>
	<g>
		<path class="st0" d="M254,258.32c0-35.47-28.95-64.32-64.53-64.32c-0.18,0-0.35,0.02-0.52,0.03c-0.18-0.01-0.35-0.03-0.52-0.03
			c-23.33,0-44.06,11.03-55.45,29.51c-5.79,9.4-2.87,21.73,6.54,27.52c3.27,2.01,6.89,2.98,10.47,2.98c6.71,0,13.27-3.38,17.05-9.51
			c3.99-6.47,12.18-10.49,21.39-10.49c0.18,0,0.35-0.02,0.52-0.03c0.18,0.01,0.35,0.03,0.52,0.03c13.3,0,24.53,11.14,24.53,24.32
			c0,7.55-10.06,15.51-16.39,19.17c-8.93,2-15.61,9.96-15.61,19.5c0,9.64,6.82,17.68,15.9,19.58l-0.19,0.05
			c0.16,0.07,16.29,6.98,16.29,16.83c0,13.41-10.91,24.32-24.32,24.32c-0.84,0-1.67,0.07-2.48,0.17
			c-7.81-0.47-15.79-5.35-20.16-12.45c-5.79-9.41-18.12-12.33-27.52-6.54c-9.4,5.79-12.33,18.11-6.54,27.52
			C144.95,385.93,166.2,398,188.42,398c1.05,0,2.08-0.11,3.09-0.26c34.62-0.98,62.49-29.42,62.49-64.28
			c0-15.65-7.11-28.04-16.12-37.18C246.52,287.09,254,274.48,254,258.32z"/>
	</g>
</g>
</svg>
