<svg xmlns="http://www.w3.org/2000/svg" width="23.461" height="23.843" viewBox="0 0 23.461 23.843">
    <defs>
        <style>
            .cls-1{fill:#fff}
        </style>
    </defs>
    <g id="header-host-icon" transform="translate(-1.269 -1)">
        <path id="Path_1632" d="M8.421 22.323l.3-1.65a4.367 4.367 0 0 1 8.6.02l.278 1.628a4.7 4.7 0 0 0 .1.5 4.709 4.709 0 0 0 .513.02h.833a3.121 3.121 0 0 0 1.365-.254 1.612 1.612 0 0 0 .68-.6 3.127 3.127 0 0 0 .424-1.321l1.1-8.61A5.131 5.131 0 0 0 22.7 10.5a1.538 1.538 0 0 0-.234-.6 5.121 5.121 0 0 0-1.11-1.1l-4.6-3.876a7.276 7.276 0 0 0-2.83-1.8 3.415 3.415 0 0 0-1.851 0 7.283 7.283 0 0 0-2.831 1.8L4.645 8.8a5.121 5.121 0 0 0-1.11 1.1 1.538 1.538 0 0 0-.234.6 5.131 5.131 0 0 0 .075 1.56l1.105 8.61a3.112 3.112 0 0 0 .425 1.321 1.614 1.614 0 0 0 .68.6 3.117 3.117 0 0 0 1.364.253h.85a4.776 4.776 0 0 0 .512-.019 4.936 4.936 0 0 0 .109-.5zM3.356 7.272L7.955 3.4a8.884 8.884 0 0 1 3.591-2.2 5.414 5.414 0 0 1 2.908 0 8.884 8.884 0 0 1 3.591 2.2l4.6 3.876a6.632 6.632 0 0 1 1.5 1.541 3.546 3.546 0 0 1 .526 1.35 6.64 6.64 0 0 1-.063 2.15l-1.1 8.611a5.077 5.077 0 0 1-.73 2.155 3.616 3.616 0 0 1-1.493 1.314 5.091 5.091 0 0 1-2.23.45h-.833a2.976 2.976 0 0 1-1.4-.213 1.805 1.805 0 0 1-.74-.625 2.983 2.983 0 0 1-.446-1.348l-.278-1.628a2.366 2.366 0 0 0-4.662 0l-.3 1.651a2.988 2.988 0 0 1-.453 1.337 1.813 1.813 0 0 1-.74.62 3 3 0 0 1-1.4.208H6.95a5.077 5.077 0 0 1-2.23-.45 3.616 3.616 0 0 1-1.493-1.313 5.072 5.072 0 0 1-.73-2.155l-1.105-8.61a6.646 6.646 0 0 1-.063-2.151 3.546 3.546 0 0 1 .526-1.35 6.63 6.63 0 0 1 1.5-1.541z" class="cls-1" data-name="Path 1632"/>
        <path id="Path_1633" d="M7.268 10.842a1 1 0 0 1 0-2h11.6a1 1 0 1 1 0 2z" class="cls-1" data-name="Path 1633"/>
    </g>
</svg>
