<svg xmlns="http://www.w3.org/2000/svg" width="18" height="25" viewBox="0 0 18 25">
    <defs>
        <style>
            .cls-1{fill:#fff}
        </style>
    </defs>
    <path id="header-app-icon" d="M10.128 2a5.022 5.022 0 0 0-2.61.416 2.635 2.635 0 0 0-1.1 1.1A5.022 5.022 0 0 0 6 6.128v12.744a5.022 5.022 0 0 0 .416 2.61 2.626 2.626 0 0 0 1.1 1.1 5.022 5.022 0 0 0 2.61.416h5.744a5.022 5.022 0 0 0 2.61-.416 2.635 2.635 0 0 0 1.1-1.1 5.022 5.022 0 0 0 .42-2.61V6.128a5.022 5.022 0 0 0-.416-2.61 2.635 2.635 0 0 0-1.1-1.1A5.022 5.022 0 0 0 15.872 2zm0-2h5.744a6.816 6.816 0 0 1 3.553.652 4.634 4.634 0 0 1 1.923 1.923A6.816 6.816 0 0 1 22 6.128v12.744a6.816 6.816 0 0 1-.652 3.553 4.634 4.634 0 0 1-1.923 1.923 6.816 6.816 0 0 1-3.553.652h-5.744a6.816 6.816 0 0 1-3.553-.652 4.634 4.634 0 0 1-1.923-1.923A6.814 6.814 0 0 1 4 18.872V6.128a6.816 6.816 0 0 1 .652-3.553A4.634 4.634 0 0 1 6.575.652 6.814 6.814 0 0 1 10.128 0zm.14 20.842a1 1 0 0 1 0-2h5.6a1 1 0 1 1 0 2z" class="cls-1" transform="translate(-4)"/>
</svg>
