<svg xmlns="http://www.w3.org/2000/svg" width="18.001" height="23.499" viewBox="0 0 18.001 23.499">
    <defs>
        <style>
            .cls-1{fill:#fff}
        </style>
    </defs>
    <path id="header-signin-icon" d="M16.91 18.108a9.016 9.016 0 0 1-7.82 0A6.386 6.386 0 0 0 6 23.5a1 1 0 0 1-2 0 8.3 8.3 0 0 1 3.273-6.557 9 9 0 1 1 11.455 0A8.306 8.306 0 0 1 22 23.5a1 1 0 0 1-2 0 6.39 6.39 0 0 0-3.09-5.392zM13 17a7 7 0 1 0-7-7 7 7 0 0 0 7 7zm-5-7a1 1 0 0 1 2 0 3 3 0 0 0 6 0 1 1 0 0 1 2 0 5 5 0 1 1-10 0z" class="cls-1" transform="translate(-4 -1.001)"/>
</svg>
