<svg xmlns="http://www.w3.org/2000/svg" width="18.071" height="26.856" viewBox="0 0 18.071 26.856">
    <defs>
        <style>
            .cls-1{stroke:#fff;stroke-width:.5px}.cls-2{fill:#2e2a2a}
        </style>
    </defs>
    <g id="logout" transform="translate(.25 .25)">
        <path id="Path_1666" d="M42.042 11.567a.824.824 0 0 1-.824-.824V3.028a1.375 1.375 0 0 0-1.373-1.373H27.492a.824.824 0 1 1 0-1.647h12.354a3.022 3.022 0 0 1 3.02 3.02v7.715a.824.824 0 0 1-.824.824zm0 0" class="cls-1" data-name="Path 1666" transform="translate(-25.295 -.008)"/>
        <path id="Path_1667" d="M186.549 286.125h-4.393a.824.824 0 0 1 0-1.647h4.393a1.375 1.375 0 0 0 1.373-1.373v-4.942a.824.824 0 1 1 1.647 0v4.942a3.022 3.022 0 0 1-3.02 3.02zm0 0" class="cls-1" data-name="Path 1667" transform="translate(-171.998 -263.064)"/>
        <path id="Path_1665" d="M8.786 26.364a2.263 2.263 0 0 1-.681-.1L1.5 24.06A2.217 2.217 0 0 1 0 21.972V2.2A2.2 2.2 0 0 1 2.2.008a2.265 2.265 0 0 1 .681.1l6.609 2.2a2.216 2.216 0 0 1 1.5 2.089v19.771a2.2 2.2 0 0 1-2.204 2.196zM2.2 1.655a.551.551 0 0 0-.549.549v19.768a.571.571 0 0 0 .381.529l6.578 2.192a.6.6 0 0 0 .179.024.551.551 0 0 0 .549-.549V4.4a.571.571 0 0 0-.381-.529L2.375 1.679a.6.6 0 0 0-.175-.024zm0 0" class="cls-1" data-name="Path 1665" transform="translate(0 -.008)"/>
        <ellipse id="Ellipse_9" cx="1" cy=".5" class="cls-2" data-name="Ellipse 9" rx="1" ry=".5" transform="translate(5.887 13.638)"/>
    </g>
</svg>
