<svg xmlns="http://www.w3.org/2000/svg" width="20" height="20" viewBox="0 0 20 20">
    <defs>
        <style>
            .cls-1{fill:#fff}
        </style>
    </defs>
    <path id="header-support-icon" d="M9.128 5a4.873 4.873 0 0 0-2.61.43 2.678 2.678 0 0 0-1.1 1.136A5.322 5.322 0 0 0 5 9.258v3.863a5.324 5.324 0 0 0 .416 2.693 2.676 2.676 0 0 0 1.1 1.137 4.886 4.886 0 0 0 2.61.429h6.495a4.27 4.27 0 0 1 1.22.117 2.709 2.709 0 0 1 .913.44 4.46 4.46 0 0 1 .87.891l1.634 2.017a.415.415 0 0 0 .321.155.426.426 0 0 0 .421-.432V9.258a5.325 5.325 0 0 0-.416-2.692 2.678 2.678 0 0 0-1.1-1.137A4.886 4.886 0 0 0 16.872 5zm0-2h7.744a6.665 6.665 0 0 1 3.553.669 4.694 4.694 0 0 1 1.923 1.97A7.145 7.145 0 0 1 23 9.282V20.52A2.45 2.45 0 0 1 20.581 23a2.4 2.4 0 0 1-1.856-.89l-1.634-2a2.777 2.777 0 0 0-.5-.531.746.746 0 0 0-.259-.124 2.648 2.648 0 0 0-.714-.05h-6.49a6.676 6.676 0 0 1-3.553-.668 4.694 4.694 0 0 1-1.923-1.97A7.152 7.152 0 0 1 3 13.12V9.282a7.138 7.138 0 0 1 .652-3.642 4.694 4.694 0 0 1 1.923-1.971A6.663 6.663 0 0 1 9.128 3zM10 12a1 1 0 1 1 1-1 1 1 0 0 1-1 1zm3 0a1 1 0 1 1 1-1 1 1 0 0 1-1 1zm3 0a1 1 0 1 1 1-1 1 1 0 0 1-1 1z" class="cls-1" transform="translate(-3 -3)"/>
</svg>
