<svg xmlns="http://www.w3.org/2000/svg" width="26.938" height="26.356" viewBox="0 0 26.938 26.356">
    <defs>
        <style>
            .cls-1{fill:#000002}
        </style>
    </defs>
    <path id="house-plan-scale" d="M25.531 28a.443.443 0 0 1-.314-.757l.2-.2H5.166l.2.2a.443.443 0 0 1-.627.627l-.942-.942a.442.442 0 0 1-.13-.319V26.6a.443.443 0 0 1 .194-.367l.9-.9a.443.443 0 0 1 .627.627l-.2.2h20.248l-.2-.2a.443.443 0 0 1 .627-.627l.942.942a.441.441 0 0 1 .13.319v.006a.443.443 0 0 1-.194.367l-.9.9a.441.441 0 0 1-.31.133zM1.4 24.916a.443.443 0 0 1-.367-.194l-.9-.9a.443.443 0 0 1 .624-.622l.2.2V3.144l-.2.2a.443.443 0 0 1-.627-.631l.942-.942a.434.434 0 0 1 .319-.13.454.454 0 0 1 .372.194l.9.9a.443.443 0 0 1-.627.627l-.2-.2v20.252l.2-.2a.443.443 0 1 1 .627.627l-.942.942a.439.439 0 0 1-.319.13zm25.1-1.254H5.071a.443.443 0 0 1-.443-.443V2.085a.443.443 0 0 1 .443-.443h12.8a.443.443 0 0 1 .443.443v8.6H26.5a.443.443 0 0 1 .443.443v12.091a.443.443 0 0 1-.443.443zm-8.2-.887h7.754v-11.2H18.3zm-8.493 0h7.606v-5.938H9.805zm-4.291 0h3.4v-5.938h-3.4zm3.846-6.825h8.05v-4.817a.45.45 0 0 1 .019-.133V6.374H5.515v9.576zm2.544-10.462h5.524v-2.96h-5.524zm-6.392 0h5.5v-2.96h-5.5z" class="cls-1" transform="translate(0 -1.641)"/>
</svg>
