<svg xmlns="http://www.w3.org/2000/svg" width="20.397" height="25.212" viewBox="0 0 20.397 25.212">
    <defs>
        <style>
            .cls-1{fill:#fff}
        </style>
    </defs>
    <g id="place">
        <g id="Group_387" data-name="Group 387">
            <g id="Group_386" data-name="Group 386">
                <path id="Path_1629" d="M67.453 4.384a10.18 10.18 0 0 0-16.737 0 10.181 10.181 0 0 0-1.185 9.38 8.018 8.018 0 0 0 1.478 2.44l7.4 8.7a.881.881 0 0 0 1.342 0l7.4-8.7a8.026 8.026 0 0 0 1.477-2.437 10.183 10.183 0 0 0-1.175-9.383zm-.468 8.769a6.288 6.288 0 0 1-1.163 1.9l-6.734 7.909-6.738-7.914a6.292 6.292 0 0 1-1.165-1.91 8.422 8.422 0 0 1 .984-7.76A8.416 8.416 0 0 1 66 5.386a8.423 8.423 0 0 1 .985 7.766z" class="cls-1" data-name="Path 1629" transform="translate(-48.886)"/>
            </g>
        </g>
        <g id="Group_389" data-name="Group 389" transform="translate(5.262 5.23)">
            <g id="Group_388" data-name="Group 388">
                <path id="Path_1630" d="M160.691 106.219a4.937 4.937 0 1 0 4.937 4.937 4.942 4.942 0 0 0-4.937-4.937zm0 8.11a3.174 3.174 0 1 1 3.174-3.174 3.177 3.177 0 0 1-3.174 3.174z" class="cls-1" data-name="Path 1630" transform="translate(-155.754 -106.219)"/>
            </g>
        </g>
    </g>
</svg>
